<svg id="Layer_1" data-name="Layer 1" xmlns="http://www.w3.org/2000/svg" viewBox="0 0 129.65 129.7"><defs><style>.cls-1{font-size:17.5px;fill:#231f20;font-family:Poppins-Regular, Poppins;}</style></defs><title>logo1</title><text class="cls-1" transform="translate(27.15 31.43) rotate(-41.41)">D</text><text class="cls-1" transform="translate(36 23.65) rotate(-28.86)">e</text><text class="cls-1" transform="matrix(0.95, -0.31, 0.31, 0.95, 45.02, 18.71)">s</text><text class="cls-1" transform="matrix(0.98, -0.19, 0.19, 0.98, 53.39, 16.13)">i</text><text class="cls-1" transform="matrix(1, -0.03, 0.03, 1, 57.17, 15.09)">g</text><text class="cls-1" transform="matrix(0.98, 0.18, -0.18, 0.98, 68.39, 14.66)">n</text><text class="cls-1" transform="translate(78.84 16.53) rotate(22.36)">e</text><text class="cls-1" transform="translate(88.36 20.59) rotate(31.76)">r</text><text class="cls-1" transform="matrix(0.79, 0.61, -0.61, 0.79, 93.62, 23.89)"> </text><text class="cls-1" transform="translate(97.12 26.58) rotate(42.82)"> </text><text class="cls-1" transform="matrix(0.62, 0.79, -0.79, 0.62, 100.46, 29.21)">D</text><text class="cls-1" transform="translate(107.69 38.48) rotate(64.53)">e</text><text class="cls-1" transform="matrix(0.25, 0.97, -0.97, 0.25, 112.12, 47.79)">v</text><text class="cls-1" transform="translate(114.49 56.74) rotate(86.96)">e</text><text class="cls-1" transform="translate(114.85 67.15) rotate(95.03)">l</text><text class="cls-1" transform="translate(114.79 71.08) rotate(103.45)">o</text><text class="cls-1" transform="matrix(-0.44, 0.9, -0.9, -0.44, 112.42, 81.4)">p</text><text class="cls-1" transform="translate(107.51 91.51) rotate(128.23)">e</text><text class="cls-1" transform="translate(100.99 99.56) rotate(137.56)">r</text><text class="cls-1" transform="matrix(-0.8, 0.59, -0.59, -0.8, 96.38, 103.73)"> </text><text class="cls-1" transform="translate(92.84 106.36) rotate(148.63)"> </text><text class="cls-1" transform="translate(89.07 108.67) rotate(153.71)"> </text><text class="cls-1" transform="translate(85.33 110.76) rotate(161.75)">P</text><text class="cls-1" transform="translate(76.11 113.69) rotate(170.82)">r</text><text class="cls-1" transform="matrix(-1, -0.02, 0.02, -1, 70.17, 114.94)">o</text><text class="cls-1" transform="translate(59.56 114.93) rotate(-167.27)">b</text><text class="cls-1" transform="translate(48.54 112.18) rotate(-158.5)">l</text><text class="cls-1" transform="matrix(-0.87, -0.5, 0.5, -0.87, 44.81, 110.99)">e</text><text class="cls-1" transform="translate(35.65 106.43) rotate(-134.7)">m</text><text class="cls-1" transform="translate(23.9 93.65) rotate(-122.49)"> </text><text class="cls-1" transform="matrix(-0.41, -0.91, 0.91, -0.41, 21.42, 90.18)">S</text><text class="cls-1" transform="translate(17.31 81.38) rotate(-102.73)">o</text><text class="cls-1" transform="matrix(-0.08, -1, 1, -0.08, 15.16, 70.83)">l</text><text class="cls-1" transform="translate(14.66 66.92) rotate(-86.8)">v</text><text class="cls-1" transform="translate(15.07 57.65) rotate(-75.62)">e</text><text class="cls-1" transform="translate(17.78 47.64) rotate(-66.15)">r</text><text class="cls-1" transform="translate(20.31 41.99) rotate(-60.1)"> </text></svg>